<svg width="103" height="67" viewBox="0 0 103 67" fill="none" xmlns="http://www.w3.org/2000/svg">
<g clip-path="url(#clip0_237_1709)">
<path d="M89.7934 58.5938C89.7934 59.9236 90.8715 61.0017 92.2014 61.0017C93.5313 61.0017 94.6094 59.9236 94.6094 58.5938C94.6094 57.2639 93.5313 56.1858 92.2014 56.1858C90.8715 56.1858 89.7934 57.2639 89.7934 58.5938Z" fill="#A29BFE"/>
<path d="M97.8198 66.6204C97.8198 67.9503 98.8979 69.0283 100.228 69.0283C101.558 69.0283 102.636 67.9503 102.636 66.6204C102.636 65.2905 101.558 64.2124 100.228 64.2124C98.8979 64.2124 97.8198 65.2905 97.8198 66.6204Z" fill="#A29BFE"/>
<path d="M73.7402 42.5408C73.7402 43.8707 74.8183 44.9487 76.1482 44.9487C77.4781 44.9487 78.5562 43.8707 78.5562 42.5408C78.5562 41.2109 77.4781 40.1328 76.1482 40.1328C74.8183 40.1328 73.7402 41.2109 73.7402 42.5408Z" fill="#A29BFE"/>
<path d="M81.7666 50.5674C81.7666 51.8973 82.8447 52.9754 84.1746 52.9754C85.5044 52.9754 86.5825 51.8973 86.5825 50.5674C86.5825 49.2375 85.5044 48.1594 84.1746 48.1594C82.8447 48.1594 81.7666 49.2375 81.7666 50.5674Z" fill="#A29BFE"/>
<path d="M73.7402 58.5938C73.7402 59.9236 74.8183 61.0017 76.1482 61.0017C77.4781 61.0017 78.5562 59.9236 78.5562 58.5938C78.5562 57.2639 77.4781 56.1858 76.1482 56.1858C74.8183 56.1858 73.7402 57.2639 73.7402 58.5938Z" fill="#A29BFE"/>
<path d="M81.7666 66.6204C81.7666 67.9503 82.8447 69.0283 84.1746 69.0283C85.5044 69.0283 86.5825 67.9503 86.5825 66.6204C86.5825 65.2905 85.5044 64.2124 84.1746 64.2124C82.8447 64.2124 81.7666 65.2905 81.7666 66.6204Z" fill="#A29BFE"/>
<path d="M57.687 26.4876C57.687 27.8174 58.7651 28.8955 60.095 28.8955C61.4248 28.8955 62.5029 27.8174 62.5029 26.4876C62.5029 25.1577 61.4248 24.0796 60.095 24.0796C58.7651 24.0796 57.687 25.1577 57.687 26.4876Z" fill="#A29BFE"/>
<path d="M65.7134 34.5142C65.7134 35.8441 66.7914 36.9221 68.1213 36.9221C69.4512 36.9221 70.5293 35.8441 70.5293 34.5142C70.5293 33.1843 69.4512 32.1062 68.1213 32.1062C66.7914 32.1062 65.7134 33.1843 65.7134 34.5142Z" fill="#A29BFE"/>
<path d="M57.687 42.5408C57.687 43.8707 58.7651 44.9487 60.095 44.9487C61.4248 44.9487 62.5029 43.8707 62.5029 42.5408C62.5029 41.2109 61.4248 40.1328 60.095 40.1328C58.7651 40.1328 57.687 41.2109 57.687 42.5408Z" fill="#A29BFE"/>
<path d="M65.7134 50.5674C65.7134 51.8973 66.7914 52.9754 68.1213 52.9754C69.4512 52.9754 70.5293 51.8973 70.5293 50.5674C70.5293 49.2375 69.4512 48.1594 68.1213 48.1594C66.7914 48.1594 65.7134 49.2375 65.7134 50.5674Z" fill="#A29BFE"/>
<path d="M57.687 58.5938C57.687 59.9236 58.7651 61.0017 60.095 61.0017C61.4248 61.0017 62.5029 59.9236 62.5029 58.5938C62.5029 57.2639 61.4248 56.1858 60.095 56.1858C58.7651 56.1858 57.687 57.2639 57.687 58.5938Z" fill="#A29BFE"/>
<path d="M65.7134 66.6204C65.7134 67.9503 66.7914 69.0283 68.1213 69.0283C69.4512 69.0283 70.5293 67.9503 70.5293 66.6204C70.5293 65.2905 69.4512 64.2124 68.1213 64.2124C66.7914 64.2124 65.7134 65.2905 65.7134 66.6204Z" fill="#A29BFE"/>
<path d="M49.6606 34.5142C49.6606 35.8441 50.7387 36.9221 52.0686 36.9221C53.3985 36.9221 54.4766 35.8441 54.4766 34.5142C54.4766 33.1843 53.3985 32.1062 52.0686 32.1062C50.7387 32.1062 49.6606 33.1843 49.6606 34.5142Z" fill="#A29BFE"/>
<path d="M41.6338 42.5408C41.6338 43.8707 42.7119 44.9487 44.0417 44.9487C45.3716 44.9487 46.4497 43.8707 46.4497 42.5408C46.4497 41.2109 45.3716 40.1328 44.0417 40.1328C42.7119 40.1328 41.6338 41.2109 41.6338 42.5408Z" fill="#A29BFE"/>
<path d="M49.6606 50.5674C49.6606 51.8973 50.7387 52.9754 52.0686 52.9754C53.3985 52.9754 54.4766 51.8973 54.4766 50.5674C54.4766 49.2375 53.3985 48.1594 52.0686 48.1594C50.7387 48.1594 49.6606 49.2375 49.6606 50.5674Z" fill="#A29BFE"/>
<path d="M41.6338 58.5938C41.6338 59.9236 42.7119 61.0017 44.0417 61.0017C45.3716 61.0017 46.4497 59.9236 46.4497 58.5938C46.4497 57.2639 45.3716 56.1858 44.0417 56.1858C42.7119 56.1858 41.6338 57.2639 41.6338 58.5938Z" fill="#A29BFE"/>
<path d="M49.6606 66.6204C49.6606 67.9503 50.7387 69.0283 52.0686 69.0283C53.3985 69.0283 54.4766 67.9503 54.4766 66.6204C54.4766 65.2905 53.3985 64.2124 52.0686 64.2124C50.7387 64.2124 49.6606 65.2905 49.6606 66.6204Z" fill="#A29BFE"/>
<path d="M33.6074 50.5674C33.6074 51.8973 34.6855 52.9754 36.0154 52.9754C37.3453 52.9754 38.4233 51.8973 38.4233 50.5674C38.4233 49.2375 37.3453 48.1594 36.0154 48.1594C34.6855 48.1594 33.6074 49.2375 33.6074 50.5674Z" fill="#A29BFE"/>
<path d="M25.581 58.5938C25.581 59.9236 26.6591 61.0017 27.989 61.0017C29.3189 61.0017 30.397 59.9236 30.397 58.5938C30.397 57.2639 29.3189 56.1858 27.989 56.1858C26.6591 56.1858 25.581 57.2639 25.581 58.5938Z" fill="#A29BFE"/>
<path d="M33.6074 66.6204C33.6074 67.9503 34.6855 69.0283 36.0154 69.0283C37.3453 69.0283 38.4233 67.9503 38.4233 66.6204C38.4233 65.2905 37.3453 64.2124 36.0154 64.2124C34.6855 64.2124 33.6074 65.2905 33.6074 66.6204Z" fill="#A29BFE"/>
<path d="M17.5542 66.6204C17.5542 67.9503 18.6323 69.0283 19.9622 69.0283C21.292 69.0283 22.3701 67.9503 22.3701 66.6204C22.3701 65.2905 21.292 64.2124 19.9622 64.2124C18.6323 64.2124 17.5542 65.2905 17.5542 66.6204Z" fill="#A29BFE"/>
</g>
<defs>
<clipPath id="clip0_237_1709">
<rect width="75.2662" height="102.636" fill="white" transform="translate(102.636) rotate(90)"/>
</clipPath>
</defs>
</svg>
