<svg width="63" height="64" viewBox="0 0 63 64" fill="none" xmlns="http://www.w3.org/2000/svg">
<g filter="url(#filter0_dd_237_2216)">
<path d="M24.5 42H20.3C19.5574 42 18.8452 41.705 18.3201 41.1799C17.795 40.6548 17.5 39.9426 17.5 39.2V29.4C17.5 28.6574 17.795 27.9452 18.3201 27.4201C18.8452 26.895 19.5574 26.6 20.3 26.6H24.5M34.3 23.8V18.2C34.3 17.0861 33.8575 16.0178 33.0698 15.2302C32.2822 14.4425 31.2139 14 30.1 14L24.5 26.6V42H40.292C40.9673 42.0076 41.6225 41.771 42.1371 41.3336C42.6516 40.8962 42.9907 40.2877 43.092 39.62L45.024 27.02C45.0849 26.6187 45.0578 26.209 44.9447 25.8192C44.8315 25.4293 44.6349 25.0688 44.3686 24.7625C44.1023 24.4562 43.7725 24.2115 43.4022 24.0453C43.0319 23.8791 42.6299 23.7954 42.224 23.8H34.3Z" stroke="#FFEAA7" stroke-width="3" stroke-linecap="round" stroke-linejoin="round"/>
</g>
<defs>
<filter id="filter0_dd_237_2216" x="-12.5" y="-12" width="88" height="88" filterUnits="userSpaceOnUse" color-interpolation-filters="sRGB">
<feFlood flood-opacity="0" result="BackgroundImageFix"/>
<feColorMatrix in="SourceAlpha" type="matrix" values="0 0 0 0 0 0 0 0 0 0 0 0 0 0 0 0 0 0 127 0" result="hardAlpha"/>
<feOffset dy="4"/>
<feGaussianBlur stdDeviation="8"/>
<feColorMatrix type="matrix" values="0 0 0 0 0.14902 0 0 0 0 0.196078 0 0 0 0 0.219608 0 0 0 0.08 0"/>
<feBlend mode="multiply" in2="BackgroundImageFix" result="effect1_dropShadow_237_2216"/>
<feColorMatrix in="SourceAlpha" type="matrix" values="0 0 0 0 0 0 0 0 0 0 0 0 0 0 0 0 0 0 127 0" result="hardAlpha"/>
<feOffset dy="4"/>
<feGaussianBlur stdDeviation="3"/>
<feColorMatrix type="matrix" values="0 0 0 0 0.14902 0 0 0 0 0.196078 0 0 0 0 0.219608 0 0 0 0.16 0"/>
<feBlend mode="multiply" in2="effect1_dropShadow_237_2216" result="effect2_dropShadow_237_2216"/>
<feBlend mode="normal" in="SourceGraphic" in2="effect2_dropShadow_237_2216" result="shape"/>
</filter>
</defs>
</svg>
