<svg width="63" height="64" viewBox="0 0 63 64" fill="none" xmlns="http://www.w3.org/2000/svg">
<g filter="url(#filter0_dd_237_2245)">
<path d="M44.3946 33.446C43.5039 35.5523 42.1109 37.4083 40.3372 38.8518C38.5635 40.2953 36.4632 41.2824 34.22 41.7267C31.9767 42.171 29.6588 42.059 27.4688 41.4005C25.2788 40.742 23.2834 39.5571 21.6572 37.9493C20.0309 36.3415 18.8233 34.3598 18.1399 32.1775C17.4564 29.9952 17.318 27.6787 17.7366 25.4305C18.1553 23.1823 19.1183 21.0709 20.5414 19.2808C21.9646 17.4908 23.8046 16.0766 25.9006 15.162" stroke="#FFEAA7" stroke-width="3" stroke-linecap="round" stroke-linejoin="round"/>
<path d="M45.5005 28C45.5005 26.1615 45.1384 24.341 44.4348 22.6424C43.7312 20.9439 42.7 19.4005 41.4 18.1005C40.1 16.8005 38.5566 15.7693 36.8581 15.0657C35.1595 14.3621 33.339 14 31.5005 14V28H45.5005Z" stroke="#FFEAA7" stroke-width="3" stroke-linecap="round" stroke-linejoin="round"/>
</g>
<defs>
<filter id="filter0_dd_237_2245" x="-12.5" y="-12" width="88" height="88" filterUnits="userSpaceOnUse" color-interpolation-filters="sRGB">
<feFlood flood-opacity="0" result="BackgroundImageFix"/>
<feColorMatrix in="SourceAlpha" type="matrix" values="0 0 0 0 0 0 0 0 0 0 0 0 0 0 0 0 0 0 127 0" result="hardAlpha"/>
<feOffset dy="4"/>
<feGaussianBlur stdDeviation="8"/>
<feColorMatrix type="matrix" values="0 0 0 0 0.14902 0 0 0 0 0.196078 0 0 0 0 0.219608 0 0 0 0.08 0"/>
<feBlend mode="multiply" in2="BackgroundImageFix" result="effect1_dropShadow_237_2245"/>
<feColorMatrix in="SourceAlpha" type="matrix" values="0 0 0 0 0 0 0 0 0 0 0 0 0 0 0 0 0 0 127 0" result="hardAlpha"/>
<feOffset dy="4"/>
<feGaussianBlur stdDeviation="3"/>
<feColorMatrix type="matrix" values="0 0 0 0 0.14902 0 0 0 0 0.196078 0 0 0 0 0.219608 0 0 0 0.16 0"/>
<feBlend mode="multiply" in2="effect1_dropShadow_237_2245" result="effect2_dropShadow_237_2245"/>
<feBlend mode="normal" in="SourceGraphic" in2="effect2_dropShadow_237_2245" result="shape"/>
</filter>
</defs>
</svg>
